<svg width="251" height="102" viewBox="0 0 251 102" fill="none" xmlns="http://www.w3.org/2000/svg">
<path d="M22.2695 66V15.1768H32.3926L44.4224 51.1621C45.5317 54.5133 46.3407 57.021 46.8491 58.6851C47.4269 56.8361 48.3283 54.1204 49.5532 50.5381L61.7217 15.1768H70.77V66H64.2871V23.4624L49.5186 66H43.4517L28.7524 22.7344V66H22.2695ZM82.7651 66V15.1768H89.4907V66H82.7651ZM97.3257 66V59.7598L123.361 27.2065C125.21 24.8953 126.967 22.8846 128.631 21.1743H100.272V15.1768H136.674V21.1743L108.142 56.4316L105.057 60.0024H137.506V66H97.3257ZM178.137 15.1768H184.862V44.5405C184.862 49.6483 184.285 53.7044 183.129 56.709C181.973 59.7135 179.882 62.1634 176.854 64.0586C173.849 65.9307 169.897 66.8667 164.998 66.8667C160.236 66.8667 156.342 66.0462 153.314 64.4053C150.287 62.7643 148.126 60.3953 146.832 57.2983C145.537 54.1782 144.89 49.9256 144.89 44.5405V15.1768H151.616V44.5059C151.616 48.9202 152.02 52.179 152.829 54.2822C153.661 56.3623 155.071 57.9686 157.059 59.1011C159.069 60.2336 161.519 60.7998 164.408 60.7998C169.354 60.7998 172.879 59.6789 174.982 57.437C177.085 55.1951 178.137 50.8848 178.137 44.5059V15.1768ZM196.025 66V15.1768H202.924L229.619 55.0796V15.1768H236.067V66H229.168L202.474 26.0625V66H196.025Z" fill="white"/>
<line y1="73.5" x2="251" y2="73.5" stroke="white"/>
<path d="M33.1836 87.5742C33.1836 89.3164 32.8438 90.8164 32.1641 92.0742C31.4922 93.332 30.5508 94.3008 29.3398 94.9805C28.1367 95.6602 26.7383 96 25.1445 96H18.9688V79.4883H24.4297C27.2266 79.4883 29.3828 80.1914 30.8984 81.5977C32.4219 82.9961 33.1836 84.9883 33.1836 87.5742ZM30.9336 87.5742C30.9336 85.5273 30.3711 83.9688 29.2461 82.8984C28.1289 81.8203 26.5078 81.2812 24.3828 81.2812H21.207V94.207H24.8867C26.1133 94.207 27.1758 93.9375 28.0742 93.3984C28.9805 92.8594 29.6836 92.0938 30.1836 91.1016C30.6836 90.1094 30.9336 88.9336 30.9336 87.5742ZM49.3203 94.1719V96H36.3125V79.4883H48.8398V81.3164H38.5508V86.6133H48.1367V88.418H38.5508V94.1719H49.3203ZM65.2578 91.4414C65.2578 92.9648 64.6602 94.1445 63.4648 94.9805C62.2773 95.8164 60.6016 96.2344 58.4375 96.2344C54.4141 96.2344 52.082 94.8359 51.4414 92.0391L53.6094 91.6055C53.8594 92.5977 54.3906 93.3281 55.2031 93.7969C56.0156 94.2578 57.1211 94.4883 58.5195 94.4883C59.9648 94.4883 61.0781 94.2422 61.8594 93.75C62.6484 93.25 63.043 92.5195 63.043 91.5586C63.043 91.0195 62.918 90.582 62.668 90.2461C62.4258 89.9102 62.082 89.6328 61.6367 89.4141C61.1914 89.1953 60.6602 89.0117 60.043 88.8633C59.4258 88.7148 58.7422 88.5547 57.9922 88.3828C57.125 88.1875 56.3984 87.9961 55.8125 87.8086C55.2344 87.6211 54.7578 87.4258 54.3828 87.2227C54.0078 87.0117 53.6875 86.7891 53.4219 86.5547C53.0312 86.1953 52.7305 85.7773 52.5195 85.3008C52.3164 84.8242 52.2148 84.2773 52.2148 83.6602C52.2148 82.2461 52.7539 81.1562 53.832 80.3906C54.918 79.625 56.4688 79.2422 58.4844 79.2422C60.3594 79.2422 61.793 79.5312 62.7852 80.1094C63.7773 80.6797 64.4727 81.6562 64.8711 83.0391L62.668 83.4258C62.4258 82.5508 61.9648 81.918 61.2852 81.5273C60.6055 81.1289 59.6641 80.9297 58.4609 80.9297C57.1406 80.9297 56.1328 81.1484 55.4375 81.5859C54.7422 82.0234 54.3945 82.6758 54.3945 83.543C54.3945 84.0508 54.5273 84.4727 54.793 84.8086C55.0664 85.1367 55.457 85.4141 55.9648 85.6406C56.4414 85.8672 57.4531 86.1523 59 86.4961C59.6328 86.6445 60.2578 86.8008 60.875 86.9648C61.4922 87.1211 62.0742 87.3203 62.6211 87.5625C62.9414 87.6953 63.2461 87.8594 63.5352 88.0547C63.832 88.2422 64.0898 88.4609 64.3086 88.7109C64.6055 89.0391 64.8359 89.4258 65 89.8711C65.1719 90.3164 65.2578 90.8398 65.2578 91.4414ZM70.8125 79.4883V96H68.5742V79.4883H70.8125ZM82.5664 94.418C83.6445 94.418 84.6484 94.2539 85.5781 93.9258C86.5156 93.5977 87.2734 93.1523 87.8516 92.5898V89.6133H82.918V87.7383H89.9141V93.4336C89.0391 94.3242 87.9648 95.0156 86.6914 95.5078C85.4258 95.9922 84.0508 96.2344 82.5664 96.2344C80.8477 96.2344 79.3672 95.8867 78.125 95.1914C76.8828 94.4961 75.9258 93.5078 75.2539 92.2266C74.582 90.9375 74.2461 89.418 74.2461 87.668C74.2461 84.9883 74.9648 82.9141 76.4023 81.4453C77.8398 79.9766 79.8594 79.2422 82.4609 79.2422C84.2891 79.2422 85.7734 79.5508 86.9141 80.168C88.0547 80.7852 88.9336 81.7734 89.5508 83.1328L87.418 83.7656C86.9492 82.8281 86.3008 82.1445 85.4727 81.7148C84.6523 81.2852 83.6289 81.0703 82.4023 81.0703C80.4961 81.0703 79.0391 81.6484 78.0312 82.8047C77.0234 83.9531 76.5195 85.5742 76.5195 87.668C76.5195 89.7539 77.0547 91.4023 78.125 92.6133C79.1953 93.8164 80.6758 94.418 82.5664 94.418ZM95.6797 85.0312V96H93.6875V79.4883H96.2891L105.219 93.6445C105.125 92.1055 105.078 90.9961 105.078 90.3164V79.4883H107.094V96H104.398L95.5625 81.9375C95.5781 82.4531 95.6016 82.9688 95.6328 83.4844C95.6641 84 95.6797 84.5156 95.6797 85.0312ZM109.906 91.6523C109.906 90.5664 110.238 89.6055 110.902 88.7695C111.574 87.9336 112.582 87.2188 113.926 86.625C113.668 86.1406 113.445 85.5664 113.258 84.9023C113.07 84.2383 112.977 83.6328 112.977 83.0859C112.977 81.9141 113.332 81.0078 114.043 80.3672C114.762 79.7188 115.777 79.3945 117.09 79.3945C118.27 79.3945 119.219 79.6914 119.938 80.2852C120.664 80.8789 121.027 81.6914 121.027 82.7227C121.027 83.2695 120.902 83.7812 120.652 84.2578C120.41 84.7266 120.012 85.1797 119.457 85.6172C119.074 85.9062 118.617 86.1914 118.086 86.4727C117.562 86.7539 116.945 87.0352 116.234 87.3164C117.086 88.9023 118.23 90.5117 119.668 92.1445C120.551 90.8398 121.219 89.2383 121.672 87.3398L123.371 87.8438C122.887 89.7734 122.059 91.6055 120.887 93.3398C121.637 94.1055 122.449 94.4883 123.324 94.4883C123.887 94.4883 124.344 94.4258 124.695 94.3008V95.8828C124.273 96.0547 123.723 96.1406 123.043 96.1406C122.355 96.1406 121.719 96.0195 121.133 95.7773C120.555 95.5273 120.027 95.1523 119.551 94.6523C118.34 95.707 116.887 96.2344 115.191 96.2344C113.512 96.2344 112.211 95.832 111.289 95.0273C110.367 94.2148 109.906 93.0898 109.906 91.6523ZM119.246 82.7227C119.246 82.1602 119.051 81.7031 118.66 81.3516C118.27 80.9922 117.738 80.8125 117.066 80.8125C116.316 80.8125 115.746 81.0156 115.355 81.4219C114.965 81.8203 114.77 82.375 114.77 83.0859C114.77 83.9609 115.023 84.9141 115.531 85.9453C116.555 85.5312 117.309 85.1719 117.793 84.8672C118.277 84.5625 118.641 84.2344 118.883 83.8828C119.125 83.5312 119.246 83.1445 119.246 82.7227ZM118.379 93.457C117.605 92.543 116.906 91.6406 116.281 90.75C115.664 89.8594 115.117 88.9766 114.641 88.1016C112.797 88.8906 111.875 90.0664 111.875 91.6289C111.875 92.5742 112.176 93.3242 112.777 93.8789C113.387 94.4258 114.215 94.6992 115.262 94.6992C115.816 94.6992 116.371 94.5938 116.926 94.3828C117.48 94.1641 117.965 93.8555 118.379 93.457ZM129.336 91.1719L127.438 96H125.117L131.855 79.4883H134.398L141.031 96H138.746L136.859 91.1719H129.336ZM133.098 81.1758C132.965 81.6133 132.805 82.1016 132.617 82.6406C132.438 83.1719 132.27 83.6406 132.113 84.0469L130.016 89.4258H136.191L134.07 83.9766C133.961 83.7031 133.816 83.3164 133.637 82.8164C133.457 82.3164 133.277 81.7695 133.098 81.1758ZM156.055 94.1719V96H143.047V79.4883H155.574V81.3164H145.285V86.6133H154.871V88.418H145.285V94.1719H156.055ZM171.992 91.4414C171.992 92.9648 171.395 94.1445 170.199 94.9805C169.012 95.8164 167.336 96.2344 165.172 96.2344C161.148 96.2344 158.816 94.8359 158.176 92.0391L160.344 91.6055C160.594 92.5977 161.125 93.3281 161.938 93.7969C162.75 94.2578 163.855 94.4883 165.254 94.4883C166.699 94.4883 167.812 94.2422 168.594 93.75C169.383 93.25 169.777 92.5195 169.777 91.5586C169.777 91.0195 169.652 90.582 169.402 90.2461C169.16 89.9102 168.816 89.6328 168.371 89.4141C167.926 89.1953 167.395 89.0117 166.777 88.8633C166.16 88.7148 165.477 88.5547 164.727 88.3828C163.859 88.1875 163.133 87.9961 162.547 87.8086C161.969 87.6211 161.492 87.4258 161.117 87.2227C160.742 87.0117 160.422 86.7891 160.156 86.5547C159.766 86.1953 159.465 85.7773 159.254 85.3008C159.051 84.8242 158.949 84.2773 158.949 83.6602C158.949 82.2461 159.488 81.1562 160.566 80.3906C161.652 79.625 163.203 79.2422 165.219 79.2422C167.094 79.2422 168.527 79.5312 169.52 80.1094C170.512 80.6797 171.207 81.6562 171.605 83.0391L169.402 83.4258C169.16 82.5508 168.699 81.918 168.02 81.5273C167.34 81.1289 166.398 80.9297 165.195 80.9297C163.875 80.9297 162.867 81.1484 162.172 81.5859C161.477 82.0234 161.129 82.6758 161.129 83.543C161.129 84.0508 161.262 84.4727 161.527 84.8086C161.801 85.1367 162.191 85.4141 162.699 85.6406C163.176 85.8672 164.188 86.1523 165.734 86.4961C166.367 86.6445 166.992 86.8008 167.609 86.9648C168.227 87.1211 168.809 87.3203 169.355 87.5625C169.676 87.6953 169.98 87.8594 170.27 88.0547C170.566 88.2422 170.824 88.4609 171.043 88.7109C171.34 89.0391 171.57 89.4258 171.734 89.8711C171.906 90.3164 171.992 90.8398 171.992 91.4414ZM181.531 81.3164V96H179.305V81.3164H173.633V79.4883H187.203V81.3164H181.531ZM202.742 94.1719V96H189.734V79.4883H202.262V81.3164H191.973V86.6133H201.559V88.418H191.973V94.1719H202.742ZM212.211 81.3164V96H209.984V81.3164H204.312V79.4883H217.883V81.3164H212.211ZM222.898 79.4883V96H220.66V79.4883H222.898ZM234.5 94.3945C236.812 94.3945 238.551 93.25 239.715 90.9609L241.543 91.875C240.863 93.2969 239.906 94.3789 238.672 95.1211C237.445 95.8633 236.02 96.2344 234.395 96.2344C232.723 96.2344 231.285 95.8867 230.082 95.1914C228.879 94.4961 227.953 93.5078 227.305 92.2266C226.664 90.9375 226.344 89.418 226.344 87.668C226.344 85.9102 226.664 84.4023 227.305 83.1445C227.945 81.8867 228.867 80.9219 230.07 80.25C231.273 79.5781 232.711 79.2422 234.383 79.2422C236.141 79.2422 237.609 79.5859 238.789 80.2734C239.969 80.9609 240.836 81.9805 241.391 83.332L239.27 84.0352C238.887 83.0742 238.27 82.3398 237.418 81.832C236.574 81.3242 235.57 81.0703 234.406 81.0703C232.578 81.0703 231.156 81.6602 230.141 82.8398C229.125 84.0117 228.617 85.6211 228.617 87.668C228.617 89.0117 228.855 90.1914 229.332 91.207C229.816 92.2148 230.496 93 231.371 93.5625C232.254 94.1172 233.297 94.3945 234.5 94.3945Z" fill="white"/>
<path d="M22.2695 66V15.1768H32.3926L44.4224 51.1621C45.5317 54.5133 46.3407 57.021 46.8491 58.6851C47.4269 56.8361 48.3283 54.1204 49.5532 50.5381L61.7217 15.1768H70.77V66H64.2871V23.4624L49.5186 66H43.4517L28.7524 22.7344V66H22.2695ZM82.7651 66V15.1768H89.4907V66H82.7651ZM97.3257 66V59.7598L123.361 27.2065C125.21 24.8953 126.967 22.8846 128.631 21.1743H100.272V15.1768H136.674V21.1743L108.142 56.4316L105.057 60.0024H137.506V66H97.3257ZM178.137 15.1768H184.862V44.5405C184.862 49.6483 184.285 53.7044 183.129 56.709C181.973 59.7135 179.882 62.1634 176.854 64.0586C173.849 65.9307 169.897 66.8667 164.998 66.8667C160.236 66.8667 156.342 66.0462 153.314 64.4053C150.287 62.7643 148.126 60.3953 146.832 57.2983C145.537 54.1782 144.89 49.9256 144.89 44.5405V15.1768H151.616V44.5059C151.616 48.9202 152.02 52.179 152.829 54.2822C153.661 56.3623 155.071 57.9686 157.059 59.1011C159.069 60.2336 161.519 60.7998 164.408 60.7998C169.354 60.7998 172.879 59.6789 174.982 57.437C177.085 55.1951 178.137 50.8848 178.137 44.5059V15.1768ZM196.025 66V15.1768H202.924L229.619 55.0796V15.1768H236.067V66H229.168L202.474 26.0625V66H196.025Z" fill="white"/>
<line y1="73.5" x2="251" y2="73.5" stroke="white"/>
<path d="M33.1836 87.5742C33.1836 89.3164 32.8438 90.8164 32.1641 92.0742C31.4922 93.332 30.5508 94.3008 29.3398 94.9805C28.1367 95.6602 26.7383 96 25.1445 96H18.9688V79.4883H24.4297C27.2266 79.4883 29.3828 80.1914 30.8984 81.5977C32.4219 82.9961 33.1836 84.9883 33.1836 87.5742ZM30.9336 87.5742C30.9336 85.5273 30.3711 83.9688 29.2461 82.8984C28.1289 81.8203 26.5078 81.2812 24.3828 81.2812H21.207V94.207H24.8867C26.1133 94.207 27.1758 93.9375 28.0742 93.3984C28.9805 92.8594 29.6836 92.0938 30.1836 91.1016C30.6836 90.1094 30.9336 88.9336 30.9336 87.5742ZM49.3203 94.1719V96H36.3125V79.4883H48.8398V81.3164H38.5508V86.6133H48.1367V88.418H38.5508V94.1719H49.3203ZM65.2578 91.4414C65.2578 92.9648 64.6602 94.1445 63.4648 94.9805C62.2773 95.8164 60.6016 96.2344 58.4375 96.2344C54.4141 96.2344 52.082 94.8359 51.4414 92.0391L53.6094 91.6055C53.8594 92.5977 54.3906 93.3281 55.2031 93.7969C56.0156 94.2578 57.1211 94.4883 58.5195 94.4883C59.9648 94.4883 61.0781 94.2422 61.8594 93.75C62.6484 93.25 63.043 92.5195 63.043 91.5586C63.043 91.0195 62.918 90.582 62.668 90.2461C62.4258 89.9102 62.082 89.6328 61.6367 89.4141C61.1914 89.1953 60.6602 89.0117 60.043 88.8633C59.4258 88.7148 58.7422 88.5547 57.9922 88.3828C57.125 88.1875 56.3984 87.9961 55.8125 87.8086C55.2344 87.6211 54.7578 87.4258 54.3828 87.2227C54.0078 87.0117 53.6875 86.7891 53.4219 86.5547C53.0312 86.1953 52.7305 85.7773 52.5195 85.3008C52.3164 84.8242 52.2148 84.2773 52.2148 83.6602C52.2148 82.2461 52.7539 81.1562 53.832 80.3906C54.918 79.625 56.4688 79.2422 58.4844 79.2422C60.3594 79.2422 61.793 79.5312 62.7852 80.1094C63.7773 80.6797 64.4727 81.6562 64.8711 83.0391L62.668 83.4258C62.4258 82.5508 61.9648 81.918 61.2852 81.5273C60.6055 81.1289 59.6641 80.9297 58.4609 80.9297C57.1406 80.9297 56.1328 81.1484 55.4375 81.5859C54.7422 82.0234 54.3945 82.6758 54.3945 83.543C54.3945 84.0508 54.5273 84.4727 54.793 84.8086C55.0664 85.1367 55.457 85.4141 55.9648 85.6406C56.4414 85.8672 57.4531 86.1523 59 86.4961C59.6328 86.6445 60.2578 86.8008 60.875 86.9648C61.4922 87.1211 62.0742 87.3203 62.6211 87.5625C62.9414 87.6953 63.2461 87.8594 63.5352 88.0547C63.832 88.2422 64.0898 88.4609 64.3086 88.7109C64.6055 89.0391 64.8359 89.4258 65 89.8711C65.1719 90.3164 65.2578 90.8398 65.2578 91.4414ZM70.8125 79.4883V96H68.5742V79.4883H70.8125ZM82.5664 94.418C83.6445 94.418 84.6484 94.2539 85.5781 93.9258C86.5156 93.5977 87.2734 93.1523 87.8516 92.5898V89.6133H82.918V87.7383H89.9141V93.4336C89.0391 94.3242 87.9648 95.0156 86.6914 95.5078C85.4258 95.9922 84.0508 96.2344 82.5664 96.2344C80.8477 96.2344 79.3672 95.8867 78.125 95.1914C76.8828 94.4961 75.9258 93.5078 75.2539 92.2266C74.582 90.9375 74.2461 89.418 74.2461 87.668C74.2461 84.9883 74.9648 82.9141 76.4023 81.4453C77.8398 79.9766 79.8594 79.2422 82.4609 79.2422C84.2891 79.2422 85.7734 79.5508 86.9141 80.168C88.0547 80.7852 88.9336 81.7734 89.5508 83.1328L87.418 83.7656C86.9492 82.8281 86.3008 82.1445 85.4727 81.7148C84.6523 81.2852 83.6289 81.0703 82.4023 81.0703C80.4961 81.0703 79.0391 81.6484 78.0312 82.8047C77.0234 83.9531 76.5195 85.5742 76.5195 87.668C76.5195 89.7539 77.0547 91.4023 78.125 92.6133C79.1953 93.8164 80.6758 94.418 82.5664 94.418ZM95.6797 85.0312V96H93.6875V79.4883H96.2891L105.219 93.6445C105.125 92.1055 105.078 90.9961 105.078 90.3164V79.4883H107.094V96H104.398L95.5625 81.9375C95.5781 82.4531 95.6016 82.9688 95.6328 83.4844C95.6641 84 95.6797 84.5156 95.6797 85.0312ZM109.906 91.6523C109.906 90.5664 110.238 89.6055 110.902 88.7695C111.574 87.9336 112.582 87.2188 113.926 86.625C113.668 86.1406 113.445 85.5664 113.258 84.9023C113.07 84.2383 112.977 83.6328 112.977 83.0859C112.977 81.9141 113.332 81.0078 114.043 80.3672C114.762 79.7188 115.777 79.3945 117.09 79.3945C118.27 79.3945 119.219 79.6914 119.938 80.2852C120.664 80.8789 121.027 81.6914 121.027 82.7227C121.027 83.2695 120.902 83.7812 120.652 84.2578C120.41 84.7266 120.012 85.1797 119.457 85.6172C119.074 85.9062 118.617 86.1914 118.086 86.4727C117.562 86.7539 116.945 87.0352 116.234 87.3164C117.086 88.9023 118.23 90.5117 119.668 92.1445C120.551 90.8398 121.219 89.2383 121.672 87.3398L123.371 87.8438C122.887 89.7734 122.059 91.6055 120.887 93.3398C121.637 94.1055 122.449 94.4883 123.324 94.4883C123.887 94.4883 124.344 94.4258 124.695 94.3008V95.8828C124.273 96.0547 123.723 96.1406 123.043 96.1406C122.355 96.1406 121.719 96.0195 121.133 95.7773C120.555 95.5273 120.027 95.1523 119.551 94.6523C118.34 95.707 116.887 96.2344 115.191 96.2344C113.512 96.2344 112.211 95.832 111.289 95.0273C110.367 94.2148 109.906 93.0898 109.906 91.6523ZM119.246 82.7227C119.246 82.1602 119.051 81.7031 118.66 81.3516C118.27 80.9922 117.738 80.8125 117.066 80.8125C116.316 80.8125 115.746 81.0156 115.355 81.4219C114.965 81.8203 114.77 82.375 114.77 83.0859C114.77 83.9609 115.023 84.9141 115.531 85.9453C116.555 85.5312 117.309 85.1719 117.793 84.8672C118.277 84.5625 118.641 84.2344 118.883 83.8828C119.125 83.5312 119.246 83.1445 119.246 82.7227ZM118.379 93.457C117.605 92.543 116.906 91.6406 116.281 90.75C115.664 89.8594 115.117 88.9766 114.641 88.1016C112.797 88.8906 111.875 90.0664 111.875 91.6289C111.875 92.5742 112.176 93.3242 112.777 93.8789C113.387 94.4258 114.215 94.6992 115.262 94.6992C115.816 94.6992 116.371 94.5938 116.926 94.3828C117.48 94.1641 117.965 93.8555 118.379 93.457ZM129.336 91.1719L127.438 96H125.117L131.855 79.4883H134.398L141.031 96H138.746L136.859 91.1719H129.336ZM133.098 81.1758C132.965 81.6133 132.805 82.1016 132.617 82.6406C132.438 83.1719 132.27 83.6406 132.113 84.0469L130.016 89.4258H136.191L134.07 83.9766C133.961 83.7031 133.816 83.3164 133.637 82.8164C133.457 82.3164 133.277 81.7695 133.098 81.1758ZM156.055 94.1719V96H143.047V79.4883H155.574V81.3164H145.285V86.6133H154.871V88.418H145.285V94.1719H156.055ZM171.992 91.4414C171.992 92.9648 171.395 94.1445 170.199 94.9805C169.012 95.8164 167.336 96.2344 165.172 96.2344C161.148 96.2344 158.816 94.8359 158.176 92.0391L160.344 91.6055C160.594 92.5977 161.125 93.3281 161.938 93.7969C162.75 94.2578 163.855 94.4883 165.254 94.4883C166.699 94.4883 167.812 94.2422 168.594 93.75C169.383 93.25 169.777 92.5195 169.777 91.5586C169.777 91.0195 169.652 90.582 169.402 90.2461C169.16 89.9102 168.816 89.6328 168.371 89.4141C167.926 89.1953 167.395 89.0117 166.777 88.8633C166.16 88.7148 165.477 88.5547 164.727 88.3828C163.859 88.1875 163.133 87.9961 162.547 87.8086C161.969 87.6211 161.492 87.4258 161.117 87.2227C160.742 87.0117 160.422 86.7891 160.156 86.5547C159.766 86.1953 159.465 85.7773 159.254 85.3008C159.051 84.8242 158.949 84.2773 158.949 83.6602C158.949 82.2461 159.488 81.1562 160.566 80.3906C161.652 79.625 163.203 79.2422 165.219 79.2422C167.094 79.2422 168.527 79.5312 169.52 80.1094C170.512 80.6797 171.207 81.6562 171.605 83.0391L169.402 83.4258C169.16 82.5508 168.699 81.918 168.02 81.5273C167.34 81.1289 166.398 80.9297 165.195 80.9297C163.875 80.9297 162.867 81.1484 162.172 81.5859C161.477 82.0234 161.129 82.6758 161.129 83.543C161.129 84.0508 161.262 84.4727 161.527 84.8086C161.801 85.1367 162.191 85.4141 162.699 85.6406C163.176 85.8672 164.188 86.1523 165.734 86.4961C166.367 86.6445 166.992 86.8008 167.609 86.9648C168.227 87.1211 168.809 87.3203 169.355 87.5625C169.676 87.6953 169.98 87.8594 170.27 88.0547C170.566 88.2422 170.824 88.4609 171.043 88.7109C171.34 89.0391 171.57 89.4258 171.734 89.8711C171.906 90.3164 171.992 90.8398 171.992 91.4414ZM181.531 81.3164V96H179.305V81.3164H173.633V79.4883H187.203V81.3164H181.531ZM202.742 94.1719V96H189.734V79.4883H202.262V81.3164H191.973V86.6133H201.559V88.418H191.973V94.1719H202.742ZM212.211 81.3164V96H209.984V81.3164H204.312V79.4883H217.883V81.3164H212.211ZM222.898 79.4883V96H220.66V79.4883H222.898ZM234.5 94.3945C236.812 94.3945 238.551 93.25 239.715 90.9609L241.543 91.875C240.863 93.2969 239.906 94.3789 238.672 95.1211C237.445 95.8633 236.02 96.2344 234.395 96.2344C232.723 96.2344 231.285 95.8867 230.082 95.1914C228.879 94.4961 227.953 93.5078 227.305 92.2266C226.664 90.9375 226.344 89.418 226.344 87.668C226.344 85.9102 226.664 84.4023 227.305 83.1445C227.945 81.8867 228.867 80.9219 230.07 80.25C231.273 79.5781 232.711 79.2422 234.383 79.2422C236.141 79.2422 237.609 79.5859 238.789 80.2734C239.969 80.9609 240.836 81.9805 241.391 83.332L239.27 84.0352C238.887 83.0742 238.27 82.3398 237.418 81.832C236.574 81.3242 235.57 81.0703 234.406 81.0703C232.578 81.0703 231.156 81.6602 230.141 82.8398C229.125 84.0117 228.617 85.6211 228.617 87.668C228.617 89.0117 228.855 90.1914 229.332 91.207C229.816 92.2148 230.496 93 231.371 93.5625C232.254 94.1172 233.297 94.3945 234.5 94.3945Z" fill="white"/>
</svg>
